<svg version="1.1" xmlns="http://www.w3.org/2000/svg" xmlns:xlink="http://www.w3.org/1999/xlink" width="635" height="444"><defs></defs><g><g transform="translate(2,-30) scale(1,1)"><rect fill="#ffffff" stroke="none" x="28" y="44" width="181" height="85"></rect></g><g transform="translate(2,-30) scale(1,1)"><path fill="none" stroke="#000000" d="M 28 44 L 209 44 L 209 129 L 28 129 L 28 44 Z Z" stroke-miterlimit="10"></path></g><g transform="translate(2,-30) scale(1,1)"><path fill="none" stroke="#000000" d="M 28 82 L 209 82" stroke-miterlimit="10"></path></g><g transform="translate(2,-30) scale(1,1)"><path fill="none" stroke="#000000" d="M 28 92 L 209 92" stroke-miterlimit="10"></path></g><g transform="translate(2,-30) scale(1,1)"><g><path fill="none" stroke="none"></path><text fill="#000000" stroke="none" font-family="Arial" font-size="13px" font-style="normal" font-weight="normal" text-decoration="none" x="86.5" y="61.5">«interface»</text></g></g><g transform="translate(2,-30) scale(1,1)"><g><path fill="none" stroke="none"></path><text fill="#000000" stroke="none" font-family="Arial" font-size="13px" font-style="normal" font-weight="bold" text-decoration="none" x="96" y="76.5">IPerson</text></g></g><g transform="translate(2,-30) scale(1,1)"><g><path fill="none" stroke="none"></path><text fill="#000000" stroke="none" font-family="Arial" font-size="13px" font-style="normal" font-weight="normal" text-decoration="none" x="33" y="109.5">+String getName()</text></g></g><g transform="translate(2,-30) scale(1,1)"><g><path fill="none" stroke="none"></path><text fill="#000000" stroke="none" font-family="Arial" font-size="13px" font-style="normal" font-weight="normal" text-decoration="none" x="33" y="124.5">+void accept(PersonVisitor v)</text></g></g><g transform="translate(2,-30) scale(1,1)"><rect fill="#ffffff" stroke="none" x="420" y="40" width="181" height="85"></rect></g><g transform="translate(2,-30) scale(1,1)"><path fill="none" stroke="#000000" d="M 420 40 L 601 40 L 601 125 L 420 125 L 420 40 Z Z" stroke-miterlimit="10"></path></g><g transform="translate(2,-30) scale(1,1)"><path fill="none" stroke="#000000" d="M 420 65 L 601 65" stroke-miterlimit="10"></path></g><g transform="translate(2,-30) scale(1,1)"><path fill="none" stroke="#000000" d="M 420 88 L 601 88" stroke-miterlimit="10"></path></g><g transform="translate(2,-30) scale(1,1)"><g><path fill="none" stroke="none"></path><text fill="#000000" stroke="none" font-family="Arial" font-size="13px" font-style="normal" font-weight="bold" text-decoration="none" x="481.5" y="59.5">Employee</text></g></g><g transform="translate(2,-30) scale(1,1)"><g><path fill="none" stroke="none"></path><text fill="#000000" stroke="none" font-family="Arial" font-size="13px" font-style="normal" font-weight="normal" text-decoration="none" x="425" y="82.5">-String name</text></g></g><g transform="translate(2,-30) scale(1,1)"><g><path fill="none" stroke="none"></path><text fill="#000000" stroke="none" font-family="Arial" font-size="13px" font-style="normal" font-weight="normal" text-decoration="none" x="425" y="105.5">+String getName()</text></g></g><g transform="translate(2,-30) scale(1,1)"><g><path fill="none" stroke="none"></path><text fill="#000000" stroke="none" font-family="Arial" font-size="13px" font-style="normal" font-weight="normal" text-decoration="none" x="425" y="120.5">+void accept(PersonVisitor v)</text></g></g><g transform="translate(2,-30) scale(1,1)"><rect fill="#ffffff" stroke="none" x="400" y="184" width="223" height="85"></rect></g><g transform="translate(2,-30) scale(1,1)"><path fill="none" stroke="#000000" d="M 400 184 L 623 184 L 623 269 L 400 269 L 400 184 Z Z" stroke-miterlimit="10"></path></g><g transform="translate(2,-30) scale(1,1)"><path fill="none" stroke="#000000" d="M 400 209 L 623 209" stroke-miterlimit="10"></path></g><g transform="translate(2,-30) scale(1,1)"><path fill="none" stroke="#000000" d="M 400 232 L 623 232" stroke-miterlimit="10"></path></g><g transform="translate(2,-30) scale(1,1)"><g><path fill="none" stroke="none"></path><text fill="#000000" stroke="none" font-family="Arial" font-size="13px" font-style="normal" font-weight="bold" text-decoration="none" x="486.5" y="203.5">Manager</text></g></g><g transform="translate(2,-30) scale(1,1)"><g><path fill="none" stroke="none"></path><text fill="#000000" stroke="none" font-family="Arial" font-size="13px" font-style="normal" font-weight="normal" text-decoration="none" x="405" y="226.5">-List&lt;Employee&gt; employees</text></g></g><g transform="translate(2,-30) scale(1,1)"><g><path fill="none" stroke="none"></path><text fill="#000000" stroke="none" font-family="Arial" font-size="13px" font-style="normal" font-weight="normal" text-decoration="none" x="405" y="249.5">+void addEmployee(Employee e)</text></g></g><g transform="translate(2,-30) scale(1,1)"><g><path fill="none" stroke="none"></path><text fill="#000000" stroke="none" font-family="Arial" font-size="13px" font-style="normal" font-weight="normal" text-decoration="none" x="405" y="264.5">+void removeEmployee(Employee e)</text></g></g><g transform="translate(2,-30) scale(1,1)"><path fill="none" stroke="#000000" d="M 420 82 L 209 82" stroke-miterlimit="10" stroke-dasharray="3"></path></g><g transform="translate(2,-30) scale(1,1)"><path fill="#FFFFFF" stroke="none" d="M 229.3253497152483 73.58096448796803 L 209 82 L 229.3253497152483 90.41903551203197"></path></g><g transform="translate(2,-30) scale(1,1)"><path fill="none" stroke="#000000" d="M 229.3253497152483 73.58096448796803 L 209 82 L 229.3253497152483 90.41903551203197 L 229.3253497152483 73.58096448796803" stroke-miterlimit="10"></path></g><g transform="translate(2,-30) scale(1,1)"><path fill="none" stroke="#000000" d="M 511 184 L 511 125" stroke-miterlimit="10"></path></g><g transform="translate(2,-30) scale(1,1)"><path fill="#FFFFFF" stroke="none" d="M 519.419035512032 145.3253497152483 L 511 125 L 502.580964487968 145.3253497152483"></path></g><g transform="translate(2,-30) scale(1,1)"><path fill="none" stroke="#000000" d="M 519.419035512032 145.3253497152483 L 511 125 L 502.580964487968 145.3253497152483 L 519.419035512032 145.3253497152483" stroke-miterlimit="10"></path></g><g transform="translate(2,-30) scale(1,1)"><rect fill="#ffffff" stroke="none" x="8" y="392" width="247" height="72"></rect></g><g transform="translate(2,-30) scale(1,1)"><path fill="none" stroke="#000000" d="M 8 392 L 255 392 L 255 464 L 8 464 L 8 392 Z Z" stroke-miterlimit="10"></path></g><g transform="translate(2,-30) scale(1,1)"><path fill="none" stroke="#000000" d="M 8 417 L 255 417" stroke-miterlimit="10"></path></g><g transform="translate(2,-30) scale(1,1)"><path fill="none" stroke="#000000" d="M 8 427 L 255 427" stroke-miterlimit="10"></path></g><g transform="translate(2,-30) scale(1,1)"><g><path fill="none" stroke="none"></path><text fill="#000000" stroke="none" font-family="Arial" font-size="13px" font-style="normal" font-weight="bold" text-decoration="none" x="79" y="411.5">PersonPrintVisitor</text></g></g><g transform="translate(2,-30) scale(1,1)"><g><path fill="none" stroke="none"></path><text fill="#000000" stroke="none" font-family="Arial" font-size="13px" font-style="normal" font-weight="normal" text-decoration="none" x="13" y="444.5">+void visitEmployee(Employee e)</text></g></g><g transform="translate(2,-30) scale(1,1)"><g><path fill="none" stroke="none"></path><text fill="#000000" stroke="none" font-family="Arial" font-size="13px" font-style="normal" font-weight="normal" text-decoration="none" x="13" y="459.5">+void visitManager(Manager m)</text></g></g><g transform="translate(2,-30) scale(1,1)"><rect fill="#ffffff" stroke="none" x="16" y="188" width="204" height="85"></rect></g><g transform="translate(2,-30) scale(1,1)"><path fill="none" stroke="#000000" d="M 16 188 L 220 188 L 220 273 L 16 273 L 16 188 Z Z" stroke-miterlimit="10"></path></g><g transform="translate(2,-30) scale(1,1)"><path fill="none" stroke="#000000" d="M 16 226 L 220 226" stroke-miterlimit="10"></path></g><g transform="translate(2,-30) scale(1,1)"><path fill="none" stroke="#000000" d="M 16 236 L 220 236" stroke-miterlimit="10"></path></g><g transform="translate(2,-30) scale(1,1)"><g><path fill="none" stroke="none"></path><text fill="#000000" stroke="none" font-family="Arial" font-size="13px" font-style="normal" font-weight="normal" text-decoration="none" x="86" y="205.5">«interface»</text></g></g><g transform="translate(2,-30) scale(1,1)"><g><path fill="none" stroke="none"></path><text fill="#000000" stroke="none" font-family="Arial" font-size="13px" font-style="normal" font-weight="bold" text-decoration="none" x="79" y="220.5">PersonVisitor</text></g></g><g transform="translate(2,-30) scale(1,1)"><g><path fill="none" stroke="none"></path><text fill="#000000" stroke="none" font-family="Arial" font-size="13px" font-style="normal" font-weight="normal" text-decoration="none" x="21" y="253.5">+void visitEmployee(Employee e)</text></g></g><g transform="translate(2,-30) scale(1,1)"><g><path fill="none" stroke="none"></path><text fill="#000000" stroke="none" font-family="Arial" font-size="13px" font-style="normal" font-weight="normal" text-decoration="none" x="21" y="268.5">+void visitManager(Manager m)</text></g></g><g transform="translate(2,-30) scale(1,1)"><rect fill="#ffffff" stroke="none" x="324" y="364" width="214" height="100"></rect></g><g transform="translate(2,-30) scale(1,1)"><path fill="none" stroke="#000000" d="M 324 364 L 538 364 L 538 464 L 324 464 L 324 364 Z Z" stroke-miterlimit="10"></path></g><g transform="translate(2,-30) scale(1,1)"><path fill="none" stroke="#000000" d="M 324 389 L 538 389" stroke-miterlimit="10"></path></g><g transform="translate(2,-30) scale(1,1)"><path fill="none" stroke="#000000" d="M 324 412 L 538 412" stroke-miterlimit="10"></path></g><g transform="translate(2,-30) scale(1,1)"><g><path fill="none" stroke="none"></path><text fill="#000000" stroke="none" font-family="Arial" font-size="13px" font-style="normal" font-weight="bold" text-decoration="none" x="371.5" y="383.5">PersonSearchVisitor</text></g></g><g transform="translate(2,-30) scale(1,1)"><g><path fill="none" stroke="none"></path><text fill="#000000" stroke="none" font-family="Arial" font-size="13px" font-style="normal" font-weight="normal" text-decoration="none" x="329" y="406.5">-String query</text></g></g><g transform="translate(2,-30) scale(1,1)"><g><path fill="none" stroke="none"></path><text fill="#000000" stroke="none" font-family="Arial" font-size="13px" font-style="normal" font-weight="normal" text-decoration="none" x="329" y="429.5">+PersonSearchVisitor(String query)</text></g></g><g transform="translate(2,-30) scale(1,1)"><g><path fill="none" stroke="none"></path><text fill="#000000" stroke="none" font-family="Arial" font-size="13px" font-style="normal" font-weight="normal" text-decoration="none" x="329" y="444.5">+void visitEmployee(Employee e)</text></g></g><g transform="translate(2,-30) scale(1,1)"><g><path fill="none" stroke="none"></path><text fill="#000000" stroke="none" font-family="Arial" font-size="13px" font-style="normal" font-weight="normal" text-decoration="none" x="329" y="459.5">+void visitManager(Manager m)</text></g></g><g transform="translate(2,-30) scale(1,1)"><path fill="none" stroke="#000000" d="M 92 392 L 92 273" stroke-miterlimit="10" stroke-dasharray="3"></path></g><g transform="translate(2,-30) scale(1,1)"><path fill="#FFFFFF" stroke="none" d="M 100.41903551203198 293.3253497152483 L 92 273 L 83.58096448796803 293.3253497152483"></path></g><g transform="translate(2,-30) scale(1,1)"><path fill="none" stroke="#000000" d="M 100.41903551203198 293.3253497152483 L 92 273 L 83.58096448796803 293.3253497152483 L 100.41903551203198 293.3253497152483" stroke-miterlimit="10"></path></g><g transform="translate(2,-30) scale(1,1)"><path fill="none" stroke="#000000" d="M 412 364 L 412 324 L 120 324 L 120 273" stroke-miterlimit="10" stroke-dasharray="3"></path></g><g transform="translate(2,-30) scale(1,1)"><path fill="#FFFFFF" stroke="none" d="M 128.41903551203197 293.3253497152483 L 120 273 L 111.58096448796803 293.3253497152483"></path></g><g transform="translate(2,-30) scale(1,1)"><path fill="none" stroke="#000000" d="M 128.41903551203197 293.3253497152483 L 120 273 L 111.58096448796803 293.3253497152483 L 128.41903551203197 293.3253497152483" stroke-miterlimit="10"></path></g><g transform="translate(2,-30) scale(1,1)"><path fill="none" stroke="#000000" d="M 158.4313725490196 129 L 158.4313725490196 188" stroke-miterlimit="10"></path></g><g transform="translate(2,-30) scale(1,1)"><path fill="none" stroke="#000000" d="M 154.22185479300362 177.83732514237585 L 158.4313725490196 188 L 162.6408903050356 177.83732514237585" stroke-miterlimit="10"></path></g></g></svg>