<svg version="1.1" xmlns="http://www.w3.org/2000/svg" xmlns:xlink="http://www.w3.org/1999/xlink" width="912" height="532"><defs></defs><g><g transform="translate(-10,-14) scale(1,1)"><path fill="none" stroke="#000000" d="M 20 24 L 912 24 L 912 536 L 20 536 L 20 24" stroke-miterlimit="10"></path></g><g transform="translate(-10,-14) scale(1,1)"><path fill="#ffffff" stroke="none" d="M 20 24 L 20 46 L 145 46 L 156 35 L 156 24 L 20 24"></path></g><g transform="translate(-10,-14) scale(1,1)"><path fill="none" stroke="#000000" d="M 20 24 L 20 46 L 145 46 L 156 35 L 156 24 L 20 24 L 20 24" stroke-miterlimit="10"></path></g><g transform="translate(-10,-14) scale(1,1)"><g><path fill="none" stroke="none"></path><text fill="#000000" stroke="none" font-family="Arial" font-size="13px" font-style="normal" font-weight="normal" text-decoration="none" x="70.5" y="41.5">SearchVisitor</text></g></g><g transform="translate(-10,-14) scale(1,1)"><g><path fill="none" stroke="none"></path><text fill="#000000" stroke="none" font-family="Arial" font-size="13px" font-style="normal" font-weight="bold" text-decoration="none" x="19" y="41.5">interaction</text></g></g><g transform="translate(-10,-14) scale(1,1)"><rect fill="#ffffff" stroke="none" x="68" y="68" width="72" height="39"></rect></g><g transform="translate(-10,-14) scale(1,1)"><path fill="none" stroke="#000000" d="M 68 68 L 140 68 L 140 107 L 68 107 L 68 68 Z Z" stroke-miterlimit="10"></path></g><g transform="translate(-10,-14) scale(1,1)"><g><path fill="none" stroke="none"></path><text fill="#000000" stroke="none" font-family="Arial" font-size="13px" font-style="normal" font-weight="bold" text-decoration="none" x="87.5" y="87.5">Client</text></g></g><g transform="translate(-10,-14) scale(1,1)"><path fill="none" stroke="#000000" d="M 105 108 L 105 536" stroke-miterlimit="10" stroke-dasharray="3"></path></g><g transform="translate(-10,-14) scale(1,1)"><rect fill="#ffffff" stroke="none" x="264" y="72" width="131" height="39"></rect></g><g transform="translate(-10,-14) scale(1,1)"><path fill="none" stroke="#000000" d="M 264 72 L 395 72 L 395 111 L 264 111 L 264 72 Z Z" stroke-miterlimit="10"></path></g><g transform="translate(-10,-14) scale(1,1)"><g><path fill="none" stroke="none"></path><text fill="#000000" stroke="none" font-family="Arial" font-size="13px" font-style="normal" font-weight="bold" text-decoration="none" x="277" y="91.5">Manager: bigBoss</text></g></g><g transform="translate(-10,-14) scale(1,1)"><path fill="none" stroke="#000000" d="M 330.5 112 L 330.5 536" stroke-miterlimit="10" stroke-dasharray="3"></path></g><g transform="translate(-10,-14) scale(1,1)"><rect fill="#ffffff" stroke="none" x="452" y="68" width="147" height="39"></rect></g><g transform="translate(-10,-14) scale(1,1)"><path fill="none" stroke="#000000" d="M 452 68 L 599 68 L 599 107 L 452 107 L 452 68 Z Z" stroke-miterlimit="10"></path></g><g transform="translate(-10,-14) scale(1,1)"><g><path fill="none" stroke="none"></path><text fill="#000000" stroke="none" font-family="Arial" font-size="13px" font-style="normal" font-weight="bold" text-decoration="none" x="466" y="87.5">SearchPersonVisitor</text></g></g><g transform="translate(-10,-14) scale(1,1)"><path fill="none" stroke="#000000" d="M 526.5 108 L 526.5 536" stroke-miterlimit="10" stroke-dasharray="3"></path></g><g transform="translate(-10,-14) scale(1,1)"><path fill="none" stroke="#000000" d="M 104.5 144 L 323 144" stroke-miterlimit="10"></path></g><g transform="translate(-10,-14) scale(1,1)"><path fill="#000000" stroke="none" d="M 312.83732514237585 148.209517756016 L 323 144 L 312.83732514237585 139.790482243984"></path></g><g transform="translate(-10,-14) scale(1,1)"><path fill="none" stroke="#000000" d="M 312.83732514237585 148.209517756016 L 323 144 L 312.83732514237585 139.790482243984 L 312.83732514237585 148.209517756016" stroke-miterlimit="10"></path></g><g transform="translate(-10,-14) scale(1,1)"><g><path fill="none" stroke="none"></path><text fill="#000000" stroke="none" font-family="Arial" font-size="13px" font-style="normal" font-weight="normal" text-decoration="none" x="162" y="141">1 : accept(Visitor)</text></g></g><g transform="translate(-10,-14) scale(1,1)"><rect fill="#ffffff" stroke="none" x="323" y="144" width="13" height="348"></rect></g><g transform="translate(-10,-14) scale(1,1)"><path fill="none" stroke="#000000" d="M 323 144 L 336 144 L 336 492 L 323 492 L 323 144 Z Z" stroke-miterlimit="10"></path></g><g transform="translate(-10,-14) scale(1,1)"><rect fill="#ffffff" stroke="none" x="780" y="68" width="72" height="39"></rect></g><g transform="translate(-10,-14) scale(1,1)"><path fill="none" stroke="#000000" d="M 780 68 L 852 68 L 852 107 L 780 107 L 780 68 Z Z" stroke-miterlimit="10"></path></g><g transform="translate(-10,-14) scale(1,1)"><g><path fill="none" stroke="none"></path><text fill="#000000" stroke="none" font-family="Arial" font-size="13px" font-style="normal" font-weight="bold" text-decoration="none" x="793.5" y="87.5">System</text></g></g><g transform="translate(-10,-14) scale(1,1)"><path fill="none" stroke="#000000" d="M 817 108 L 817 536" stroke-miterlimit="10" stroke-dasharray="3"></path></g><g transform="translate(-10,-14) scale(1,1)"><path fill="none" stroke="#000000" d="M 336 148 L 519 148" stroke-miterlimit="10"></path></g><g transform="translate(-10,-14) scale(1,1)"><path fill="#000000" stroke="none" d="M 508.83732514237585 152.209517756016 L 519 148 L 508.83732514237585 143.790482243984"></path></g><g transform="translate(-10,-14) scale(1,1)"><path fill="none" stroke="#000000" d="M 508.83732514237585 152.209517756016 L 519 148 L 508.83732514237585 143.790482243984 L 508.83732514237585 152.209517756016" stroke-miterlimit="10"></path></g><g transform="translate(-10,-14) scale(1,1)"><g><path fill="none" stroke="none"></path><text fill="#000000" stroke="none" font-family="Arial" font-size="13px" font-style="normal" font-weight="normal" text-decoration="none" x="353" y="145">2 : visitManager(bigBoss)</text></g></g><g transform="translate(-10,-14) scale(1,1)"><rect fill="#ffffff" stroke="none" x="519" y="148" width="13" height="304"></rect></g><g transform="translate(-10,-14) scale(1,1)"><path fill="none" stroke="#000000" d="M 519 148 L 532 148 L 532 452 L 519 452 L 519 148 Z Z" stroke-miterlimit="10"></path></g><g transform="translate(-10,-14) scale(1,1)"><path fill="none" stroke="#000000" d="M 532 156 L 562 156 L 562 176 L 539 176" stroke-miterlimit="10"></path></g><g transform="translate(-10,-14) scale(1,1)"><path fill="#000000" stroke="none" d="M 549.1626748576241 171.790482243984 L 539 176 L 549.1626748576241 180.209517756016"></path></g><g transform="translate(-10,-14) scale(1,1)"><path fill="none" stroke="#000000" d="M 549.1626748576241 171.790482243984 L 539 176 L 549.1626748576241 180.209517756016 L 549.1626748576241 171.790482243984" stroke-miterlimit="10"></path></g><g transform="translate(-10,-14) scale(1,1)"><g><path fill="none" stroke="none"></path><text fill="#000000" stroke="none" font-family="Arial" font-size="13px" font-style="normal" font-weight="normal" text-decoration="none" x="570" y="173">3 : visitEmployee(bigBoss)</text></g></g><g transform="translate(-10,-14) scale(1,1)"><rect fill="#ffffff" stroke="none" x="526" y="176" width="13" height="28"></rect></g><g transform="translate(-10,-14) scale(1,1)"><path fill="none" stroke="#000000" d="M 526 176 L 539 176 L 539 204 L 526 204 L 526 176 Z Z" stroke-miterlimit="10"></path></g><g transform="translate(-10,-14) scale(1,1)"><path fill="none" stroke="#000000" d="M 532 228 L 562 228 L 562 248 L 539 248" stroke-miterlimit="10"></path></g><g transform="translate(-10,-14) scale(1,1)"><path fill="#000000" stroke="none" d="M 549.1626748576241 243.790482243984 L 539 248 L 549.1626748576241 252.209517756016"></path></g><g transform="translate(-10,-14) scale(1,1)"><path fill="none" stroke="#000000" d="M 549.1626748576241 243.790482243984 L 539 248 L 549.1626748576241 252.209517756016 L 549.1626748576241 243.790482243984" stroke-miterlimit="10"></path></g><g transform="translate(-10,-14) scale(1,1)"><g><path fill="none" stroke="none"></path><text fill="#000000" stroke="none" font-family="Arial" font-size="13px" font-style="normal" font-weight="normal" text-decoration="none" x="573" y="245">4 : for(Employee e )</text></g></g><g transform="translate(-10,-14) scale(1,1)"><rect fill="#ffffff" stroke="none" x="526" y="248" width="13" height="191"></rect></g><g transform="translate(-10,-14) scale(1,1)"><path fill="none" stroke="#000000" d="M 526 248 L 539 248 L 539 439 L 526 439 L 526 248 Z Z" stroke-miterlimit="10"></path></g><g transform="translate(-10,-14) scale(1,1)"><path fill="none" stroke="#000000" d="M 539 340 L 569 340 L 569 360 L 546 360" stroke-miterlimit="10"></path></g><g transform="translate(-10,-14) scale(1,1)"><path fill="#000000" stroke="none" d="M 556.1626748576241 355.790482243984 L 546 360 L 556.1626748576241 364.209517756016"></path></g><g transform="translate(-10,-14) scale(1,1)"><path fill="none" stroke="#000000" d="M 556.1626748576241 355.790482243984 L 546 360 L 556.1626748576241 364.209517756016 L 556.1626748576241 355.790482243984" stroke-miterlimit="10"></path></g><g transform="translate(-10,-14) scale(1,1)"><g><path fill="none" stroke="none"></path><text fill="#000000" stroke="none" font-family="Arial" font-size="13px" font-style="normal" font-weight="normal" text-decoration="none" x="574" y="357">5 : visitEmployee(e)</text></g></g><g transform="translate(-10,-14) scale(1,1)"><rect fill="#ffffff" stroke="none" x="533" y="360" width="13" height="28"></rect></g><g transform="translate(-10,-14) scale(1,1)"><path fill="none" stroke="#000000" d="M 533 360 L 546 360 L 546 388 L 533 388 L 533 360 Z Z" stroke-miterlimit="10"></path></g><g transform="translate(-10,-14) scale(1,1)"><path fill="none" stroke="#000000" d="M 546 372 L 809.5 372" stroke-miterlimit="10"></path></g><g transform="translate(-10,-14) scale(1,1)"><path fill="#000000" stroke="none" d="M 799.3373251423759 376.209517756016 L 809.5 372 L 799.3373251423758 367.790482243984"></path></g><g transform="translate(-10,-14) scale(1,1)"><path fill="none" stroke="#000000" d="M 799.3373251423759 376.209517756016 L 809.5 372 L 799.3373251423758 367.790482243984 L 799.3373251423759 376.209517756016" stroke-miterlimit="10"></path></g><g transform="translate(-10,-14) scale(1,1)"><g><path fill="none" stroke="none"></path><text fill="#000000" stroke="none" font-family="Arial" font-size="13px" font-style="normal" font-weight="normal" text-decoration="none" x="603" y="388">6 : System.out.println("bilbo")</text></g></g><g transform="translate(-10,-14) scale(1,1)"><rect fill="#ffffff" stroke="none" x="809.5" y="372" width="13" height="28"></rect></g><g transform="translate(-10,-14) scale(1,1)"><path fill="none" stroke="#000000" d="M 809.5 372 L 822.5 372 L 822.5 400 L 809.5 400 L 809.5 372 Z Z" stroke-miterlimit="10"></path></g></g></svg>