<svg version="1.1" xmlns="http://www.w3.org/2000/svg" xmlns:xlink="http://www.w3.org/1999/xlink" width="648" height="539"><defs></defs><g><g transform="translate(-22,-34) scale(1,1)"><rect fill="#ffffff" stroke="none" x="92" y="44" width="320" height="100"></rect></g><g transform="translate(-22,-34) scale(1,1)"><path fill="none" stroke="#000000" d="M 92 44 L 412 44 L 412 144 L 92 144 L 92 44 Z Z" stroke-miterlimit="10"></path></g><g transform="translate(-22,-34) scale(1,1)"><path fill="none" stroke="#000000" d="M 92 82 L 412 82" stroke-miterlimit="10"></path></g><g transform="translate(-22,-34) scale(1,1)"><path fill="none" stroke="#000000" d="M 92 92 L 412 92" stroke-miterlimit="10"></path></g><g transform="translate(-22,-34) scale(1,1)"><g><path fill="none" stroke="none"></path><text fill="#000000" stroke="none" font-family="Helvetica" font-size="13px" font-style="normal" font-weight="normal" text-decoration="none" x="220" y="61.5">«interface»</text></g></g><g transform="translate(-22,-34) scale(1,1)"><g><path fill="none" stroke="none"></path><text fill="#000000" stroke="none" font-family="Helvetica" font-size="13px" font-style="normal" font-weight="bold" text-decoration="none" x="239.5" y="76.5">Icon</text></g></g><g transform="translate(-22,-34) scale(1,1)"><g><path fill="none" stroke="none"></path><text fill="#000000" stroke="none" font-family="Helvetica" font-size="13px" font-style="normal" font-weight="normal" text-decoration="none" x="97" y="109.5">+int getIconWidth()</text></g></g><g transform="translate(-22,-34) scale(1,1)"><g><path fill="none" stroke="none"></path><text fill="#000000" stroke="none" font-family="Helvetica" font-size="13px" font-style="normal" font-weight="normal" text-decoration="none" x="97" y="124.5">+int getIconHeigth()</text></g></g><g transform="translate(-22,-34) scale(1,1)"><g><path fill="none" stroke="none"></path><text fill="#000000" stroke="none" font-family="Helvetica" font-size="13px" font-style="normal" font-weight="normal" text-decoration="none" x="97" y="139.5">+void paintIcon(Component c, Graphics g, int x, int y)</text></g></g><g transform="translate(-22,-34) scale(1,1)"><rect fill="#ffffff" stroke="none" x="32" y="296" width="107" height="57"></rect></g><g transform="translate(-22,-34) scale(1,1)"><path fill="none" stroke="#000000" d="M 32 296 L 139 296 L 139 353 L 32 353 L 32 296 Z Z" stroke-miterlimit="10"></path></g><g transform="translate(-22,-34) scale(1,1)"><path fill="none" stroke="#000000" d="M 32 321 L 139 321" stroke-miterlimit="10"></path></g><g transform="translate(-22,-34) scale(1,1)"><path fill="none" stroke="#000000" d="M 32 331 L 139 331" stroke-miterlimit="10"></path></g><g transform="translate(-22,-34) scale(1,1)"><g><path fill="none" stroke="none"></path><text fill="#000000" stroke="none" font-family="Arial" font-size="13px" font-style="normal" font-weight="bold" text-decoration="none" x="55" y="315.5">ImageIcon</text></g></g><g transform="translate(-22,-34) scale(1,1)"><path fill="none" stroke="#000000" d="M 120 296 L 120 144" stroke-miterlimit="10" stroke-dasharray="3"></path></g><g transform="translate(-22,-34) scale(1,1)"><path fill="#FFFFFF" stroke="none" d="M 128.41903551203197 164.3253497152483 L 120 144 L 111.58096448796803 164.3253497152483"></path></g><g transform="translate(-22,-34) scale(1,1)"><path fill="none" stroke="#000000" d="M 128.41903551203197 164.3253497152483 L 120 144 L 111.58096448796803 164.3253497152483 L 128.41903551203197 164.3253497152483" stroke-miterlimit="10"></path></g><g transform="translate(-22,-34) scale(1,1)"><rect fill="#ffffff" stroke="none" x="72" y="448" width="320" height="115"></rect></g><g transform="translate(-22,-34) scale(1,1)"><path fill="none" stroke="#000000" d="M 72 448 L 392 448 L 392 563 L 72 563 L 72 448 Z Z" stroke-miterlimit="10"></path></g><g transform="translate(-22,-34) scale(1,1)"><path fill="none" stroke="#000000" d="M 72 473 L 392 473" stroke-miterlimit="10"></path></g><g transform="translate(-22,-34) scale(1,1)"><path fill="none" stroke="#000000" d="M 72 496 L 392 496" stroke-miterlimit="10"></path></g><g transform="translate(-22,-34) scale(1,1)"><g><path fill="none" stroke="none"></path><text fill="#000000" stroke="none" font-family="Arial" font-size="13px" font-style="normal" font-weight="bold" text-decoration="none" x="188.5" y="467.5">CompositeIcon</text></g></g><g transform="translate(-22,-34) scale(1,1)"><g><path fill="none" stroke="none"></path><text fill="#000000" stroke="none" font-family="Arial" font-size="13px" font-style="normal" font-weight="normal" text-decoration="none" x="77" y="490.5">-icons: List&lt;Icon&gt;</text></g></g><g transform="translate(-22,-34) scale(1,1)"><g><path fill="none" stroke="none"></path><text fill="#000000" stroke="none" font-family="Arial" font-size="13px" font-style="normal" font-weight="normal" text-decoration="none" x="77" y="513.5">+CompositeIcon()</text></g></g><g transform="translate(-22,-34) scale(1,1)"><g><path fill="none" stroke="none"></path><text fill="#000000" stroke="none" font-family="Arial" font-size="13px" font-style="normal" font-weight="normal" text-decoration="none" x="77" y="528.5">+void addIcon(Icon icon)</text></g></g><g transform="translate(-22,-34) scale(1,1)"><g><path fill="none" stroke="none"></path><text fill="#000000" stroke="none" font-family="Arial" font-size="13px" font-style="normal" font-weight="normal" text-decoration="none" x="77" y="543.5">+removeIcon(Icon icon)</text></g></g><g transform="translate(-22,-34) scale(1,1)"><g><path fill="none" stroke="none"></path><text fill="#000000" stroke="none" font-family="Arial" font-size="13px" font-style="normal" font-weight="normal" text-decoration="none" x="77" y="558.5">+void paintIcon(Component c, Graphics g, int x, int y)</text></g></g><g transform="translate(-22,-34) scale(1,1)"><path fill="none" stroke="#000000" d="M 256 448 L 256 144" stroke-miterlimit="10" stroke-dasharray="3"></path></g><g transform="translate(-22,-34) scale(1,1)"><path fill="#FFFFFF" stroke="none" d="M 264.419035512032 164.3253497152483 L 256 144 L 247.58096448796803 164.3253497152483"></path></g><g transform="translate(-22,-34) scale(1,1)"><path fill="none" stroke="#000000" d="M 264.419035512032 164.3253497152483 L 256 144 L 247.58096448796803 164.3253497152483 L 264.419035512032 164.3253497152483" stroke-miterlimit="10"></path></g><g transform="translate(-22,-34) scale(1,1)"><rect fill="#ffffff" stroke="none" x="340" y="296" width="320" height="130"></rect></g><g transform="translate(-22,-34) scale(1,1)"><path fill="none" stroke="#000000" d="M 340 296 L 660 296 L 660 426 L 340 426 L 340 296 Z Z" stroke-miterlimit="10"></path></g><g transform="translate(-22,-34) scale(1,1)"><path fill="none" stroke="#000000" d="M 340 321 L 660 321" stroke-miterlimit="10"></path></g><g transform="translate(-22,-34) scale(1,1)"><path fill="none" stroke="#000000" d="M 340 374 L 660 374" stroke-miterlimit="10"></path></g><g transform="translate(-22,-34) scale(1,1)"><g><path fill="none" stroke="none"></path><text fill="#000000" stroke="none" font-family="Arial" font-size="13px" font-style="normal" font-weight="bold" text-decoration="none" x="467" y="315.5">ShiftedIcon</text></g></g><g transform="translate(-22,-34) scale(1,1)"><g><path fill="none" stroke="none"></path><text fill="#000000" stroke="none" font-family="Arial" font-size="13px" font-style="normal" font-weight="normal" text-decoration="none" x="345" y="338.5">-icon: Icon</text></g></g><g transform="translate(-22,-34) scale(1,1)"><g><path fill="none" stroke="none"></path><text fill="#000000" stroke="none" font-family="Arial" font-size="13px" font-style="normal" font-weight="normal" text-decoration="none" x="345" y="353.5">-x: int</text></g></g><g transform="translate(-22,-34) scale(1,1)"><g><path fill="none" stroke="none"></path><text fill="#000000" stroke="none" font-family="Arial" font-size="13px" font-style="normal" font-weight="normal" text-decoration="none" x="345" y="368.5">-y: int</text></g></g><g transform="translate(-22,-34) scale(1,1)"><g><path fill="none" stroke="none"></path><text fill="#000000" stroke="none" font-family="Arial" font-size="13px" font-style="normal" font-weight="normal" text-decoration="none" x="345" y="391.5">+ShiftedIcon(int x, int y)</text></g></g><g transform="translate(-22,-34) scale(1,1)"><g><path fill="none" stroke="none"></path><text fill="#000000" stroke="none" font-family="Arial" font-size="13px" font-style="normal" font-weight="normal" text-decoration="none" x="345" y="406.5">+setShift(int x, int y)</text></g></g><g transform="translate(-22,-34) scale(1,1)"><g><path fill="none" stroke="none"></path><text fill="#000000" stroke="none" font-family="Arial" font-size="13px" font-style="normal" font-weight="normal" text-decoration="none" x="345" y="421.5">+void paintIcon(Component c, Graphics g, int x, int y)</text></g></g><g transform="translate(-22,-34) scale(1,1)"><path fill="none" stroke="#000000" d="M 208 144 L 208 448" stroke-miterlimit="10"></path></g><g transform="translate(-22,-34) scale(1,1)"><path fill="#FFFFFF" stroke="none" d="M 203.790482243984 437.83732514237585 L 208 448 L 212.209517756016 437.83732514237585 L 208 426"></path></g><g transform="translate(-22,-34) scale(1,1)"><path fill="none" stroke="#000000" d="M 203.790482243984 437.83732514237585 L 208 448 L 212.209517756016 437.83732514237585 L 208 426 L 203.790482243984 437.83732514237585" stroke-miterlimit="10"></path></g><g transform="translate(-22,-34) scale(1,1)"><path fill="none" stroke="#000000" d="M 340 300 L 299.148288973384 300 L 299.148288973384 144" stroke-miterlimit="10" stroke-dasharray="3"></path></g><g transform="translate(-22,-34) scale(1,1)"><path fill="#FFFFFF" stroke="none" d="M 307.567324485416 164.3253497152483 L 299.148288973384 144 L 290.729253461352 164.3253497152483"></path></g><g transform="translate(-22,-34) scale(1,1)"><path fill="none" stroke="#000000" d="M 307.567324485416 164.3253497152483 L 299.148288973384 144 L 290.729253461352 164.3253497152483 L 307.567324485416 164.3253497152483" stroke-miterlimit="10"></path></g><g transform="translate(-22,-34) scale(1,1)"><path fill="none" stroke="#000000" d="M 412 104 L 476 104 L 476 296" stroke-miterlimit="10"></path></g><g transform="translate(-22,-34) scale(1,1)"><path fill="#FFFFFF" stroke="none" d="M 471.790482243984 285.83732514237585 L 476 296 L 480.209517756016 285.83732514237585 L 476 274"></path></g><g transform="translate(-22,-34) scale(1,1)"><path fill="none" stroke="#000000" d="M 471.790482243984 285.83732514237585 L 476 296 L 480.209517756016 285.83732514237585 L 476 274 L 471.790482243984 285.83732514237585" stroke-miterlimit="10"></path></g></g></svg>